HIERARCHY
ROOT Hips
{
  OFFSET 17.889 28.144 -236.413
  CHANNELS 6 Xposition Yposition Zposition Zrotation Xrotation Yrotation
  JOINT LeftUpLeg
  {
    OFFSET 7.696 -6.863 3.091
    CHANNELS 6 Xposition Yposition Zposition Zrotation Xrotation Yrotation
    JOINT LeftLeg
    {
      OFFSET -0.000 -50.206 0.000
      CHANNELS 6 Xposition Yposition Zposition Zrotation Xrotation Yrotation
      JOINT LeftFoot
      {
        OFFSET -0.000 -39.921 -0.000
        CHANNELS 6 Xposition Yposition Zposition Zrotation Xrotation Yrotation
        End Site
        {
          OFFSET 0.000 -8.711 5.029
        }
      }
    }
  }
  JOINT RightUpLeg
  {
    OFFSET -7.510 -7.236 2.837
    CHANNELS 6 Xposition Yposition Zposition Zrotation Xrotation Yrotation
    JOINT RightLeg
    {
      OFFSET 0.000 -50.429 0.000
      CHANNELS 6 Xposition Yposition Zposition Zrotation Xrotation Yrotation
      JOINT RightFoot
      {
        OFFSET -0.000 -41.305 -0.000
        CHANNELS 6 Xposition Yposition Zposition Zrotation Xrotation Yrotation
        End Site
        {
          OFFSET 0.000 -7.831 4.521
        }
      }
    }
  }
  JOINT Spine
  {
    OFFSET 0.000 5.543 -5.543
    CHANNELS 6 Xposition Yposition Zposition Zrotation Xrotation Yrotation
    JOINT LeftShoulder
    {
      OFFSET -0.000 34.725 0.000
      CHANNELS 6 Xposition Yposition Zposition Zrotation Xrotation Yrotation
      JOINT LeftArm
      {
        OFFSET 19.746 0.000 -0.000
        CHANNELS 6 Xposition Yposition Zposition Zrotation Xrotation Yrotation
        JOINT LeftForeArm
        {
          OFFSET 23.902 0.000 0.000
          CHANNELS 6 Xposition Yposition Zposition Zrotation Xrotation Yrotation
          JOINT LeftHand
          {
            OFFSET 25.936 -0.000 -0.000
            CHANNELS 6 Xposition Yposition Zposition Zrotation Xrotation Yrotation
            JOINT LeftHandThumb1
            {
            OFFSET 4.970 -0.620 3.390
            CHANNELS 6 Xposition Yposition Zposition Zrotation Xrotation Yrotation
              JOINT LeftHandThumb2
              {
              OFFSET 2.150 -0.000 0.000
              CHANNELS 6 Xposition Yposition Zposition Zrotation Xrotation Yrotation
                JOINT LeftHandThumb3
                {
                OFFSET 2.200 -0.000 0.000
                CHANNELS 6 Xposition Yposition Zposition Zrotation Xrotation Yrotation
                  JOINT LeftHandThumb4
                  {
                  OFFSET 1.700 -0.000 0.000
                  CHANNELS 6 Xposition Yposition Zposition Zrotation Xrotation Yrotation
                  }
                }
              }
            }
            JOINT LeftHandIndex1
            {
            OFFSET 8.730 0.680 2.070
            CHANNELS 6 Xposition Yposition Zposition Zrotation Xrotation Yrotation
              JOINT LeftHandIndex2
              {
              OFFSET 2.670 -0.000 0.000
              CHANNELS 6 Xposition Yposition Zposition Zrotation Xrotation Yrotation
                JOINT LeftHandIndex3
                {
                OFFSET 2.130 -0.000 0.000
                CHANNELS 6 Xposition Yposition Zposition Zrotation Xrotation Yrotation
                  JOINT LeftHandIndex4
                  {
                  OFFSET 1.800 -0.000 0.000
                  CHANNELS 6 Xposition Yposition Zposition Zrotation Xrotation Yrotation
                  }
                }
              }
            }
            JOINT LeftHandMiddle1
            {
            OFFSET 9.220 0.670 0.550
            CHANNELS 6 Xposition Yposition Zposition Zrotation Xrotation Yrotation
              JOINT LeftHandMiddle2
              {
              OFFSET 2.660 -0.000 0.000
              CHANNELS 6 Xposition Yposition Zposition Zrotation Xrotation Yrotation
                JOINT LeftHandMiddle3
                {
                OFFSET 2.280 -0.000 0.000
                CHANNELS 6 Xposition Yposition Zposition Zrotation Xrotation Yrotation
                  JOINT LeftHandMiddle4
                  {
                  OFFSET 1.500 -0.000 0.000
                  CHANNELS 6 Xposition Yposition Zposition Zrotation Xrotation Yrotation
                  }
                }
              }
            }
            JOINT LeftHandRing1
            {
            OFFSET 9.250 0.670 -1.130
            CHANNELS 6 Xposition Yposition Zposition Zrotation Xrotation Yrotation
              JOINT LeftHandRing2
              {
              OFFSET 2.470 -0.000 0.000
              CHANNELS 6 Xposition Yposition Zposition Zrotation Xrotation Yrotation
                JOINT LeftHandRing3
                {
                OFFSET 2.210 -0.000 0.000
                CHANNELS 6 Xposition Yposition Zposition Zrotation Xrotation Yrotation
                  JOINT LeftHandRing4
                  {
                  OFFSET 1.800 -0.000 0.000
                  CHANNELS 6 Xposition Yposition Zposition Zrotation Xrotation Yrotation
                  }
                }
              }
            }
            JOINT LeftHandPinky1
            {
            OFFSET 9.350 0.660 -2.720
            CHANNELS 6 Xposition Yposition Zposition Zrotation Xrotation Yrotation
              JOINT LeftHandPinky2
              {
              OFFSET 1.630 -0.000 0.000
              CHANNELS 6 Xposition Yposition Zposition Zrotation Xrotation Yrotation
                JOINT LeftHandPinky3
                {
                OFFSET 1.710 -0.000 0.000
                CHANNELS 6 Xposition Yposition Zposition Zrotation Xrotation Yrotation
                  JOINT LeftHandPinky4
                  {
                  OFFSET 1.800 -0.000 0.000
                  CHANNELS 6 Xposition Yposition Zposition Zrotation Xrotation Yrotation
                  }
                }
              }
            }
          }
        }
      }
    }
    JOINT RightShoulder
    {
      OFFSET -0.000 34.725 0.000
      CHANNELS 6 Xposition Yposition Zposition Zrotation Xrotation Yrotation
      JOINT RightArm
      {
        OFFSET -19.233 0.000 -0.000
        CHANNELS 6 Xposition Yposition Zposition Zrotation Xrotation Yrotation
        JOINT RightForeArm
        {
          OFFSET -22.083 0.000 0.000
          CHANNELS 6 Xposition Yposition Zposition Zrotation Xrotation Yrotation
          JOINT RightHand
          {
            OFFSET -24.479 0.000 -0.000
            CHANNELS 6 Xposition Yposition Zposition Zrotation Xrotation Yrotation
            JOINT RightHandThumb1
            {
            OFFSET -4.970 -0.620 3.390
            CHANNELS 6 Xposition Yposition Zposition Zrotation Xrotation Yrotation
              JOINT RightHandThumb2
              {
              OFFSET -2.150 0.000 0.000
              CHANNELS 6 Xposition Yposition Zposition Zrotation Xrotation Yrotation
                JOINT RightHandThumb3
                {
                OFFSET -2.200 0.000 0.000
                CHANNELS 6 Xposition Yposition Zposition Zrotation Xrotation Yrotation
                  JOINT RightHandThumb4
                  {
                  OFFSET -1.700 0.000 0.000
                  CHANNELS 6 Xposition Yposition Zposition Zrotation Xrotation Yrotation
                  }
                }
              }
            }
            JOINT RightHandIndex1
            {
            OFFSET -8.730 0.680 2.070
            CHANNELS 6 Xposition Yposition Zposition Zrotation Xrotation Yrotation
              JOINT RightHandIndex2
              {
              OFFSET -2.670 0.000 0.000
              CHANNELS 6 Xposition Yposition Zposition Zrotation Xrotation Yrotation
                JOINT RightHandIndex3
                {
                OFFSET -2.130 0.000 0.000
                CHANNELS 6 Xposition Yposition Zposition Zrotation Xrotation Yrotation
                  JOINT RightHandIndex4
                  {
                  OFFSET -1.800 0.000 0.000
                  CHANNELS 6 Xposition Yposition Zposition Zrotation Xrotation Yrotation
                  }
                }
              }
            }
            JOINT RightHandMiddle1
            {
            OFFSET -9.220 0.670 0.550
            CHANNELS 6 Xposition Yposition Zposition Zrotation Xrotation Yrotation
              JOINT RightHandMiddle2
              {
              OFFSET -2.660 0.000 0.000
              CHANNELS 6 Xposition Yposition Zposition Zrotation Xrotation Yrotation
                JOINT RightHandMiddle3
                {
                OFFSET -2.280 0.000 0.000
                CHANNELS 6 Xposition Yposition Zposition Zrotation Xrotation Yrotation
                  JOINT RightHandMiddle4
                  {
                  OFFSET -1.500 0.000 0.000
                  CHANNELS 6 Xposition Yposition Zposition Zrotation Xrotation Yrotation
                  }
                }
              }
            }
            JOINT RightHandRing1
            {
            OFFSET -9.250 0.670 -1.130
            CHANNELS 6 Xposition Yposition Zposition Zrotation Xrotation Yrotation
              JOINT RightHandRing2
              {
              OFFSET -2.470 0.000 0.000
              CHANNELS 6 Xposition Yposition Zposition Zrotation Xrotation Yrotation
                JOINT RightHandRing3
                {
                OFFSET -2.210 0.000 0.000
                CHANNELS 6 Xposition Yposition Zposition Zrotation Xrotation Yrotation
                  JOINT RightHandRing4
                  {
                  OFFSET -1.800 0.000 0.000
                  CHANNELS 6 Xposition Yposition Zposition Zrotation Xrotation Yrotation
                  }
                }
              }
            }
            JOINT RightHandPinky1
            {
            OFFSET -9.350 0.660 -2.720
            CHANNELS 6 Xposition Yposition Zposition Zrotation Xrotation Yrotation
              JOINT RightHandPinky2
              {
              OFFSET -1.630 0.000 0.000
              CHANNELS 6 Xposition Yposition Zposition Zrotation Xrotation Yrotation
                JOINT RightHandPinky3
                {
                OFFSET -1.710 0.000 0.000
                CHANNELS 6 Xposition Yposition Zposition Zrotation Xrotation Yrotation
                  JOINT RightHandPinky4
                  {
                  OFFSET -1.800 0.000 0.000
                  CHANNELS 6 Xposition Yposition Zposition Zrotation Xrotation Yrotation
                  }
                }
              }
            }
          }
        }
      }
    }
    JOINT Neck
    {
      OFFSET -0.000 34.725 0.000
      CHANNELS 6 Xposition Yposition Zposition Zrotation Xrotation Yrotation
      JOINT Head
      {
        OFFSET -0.000 19.383 -0.000
        CHANNELS 6 Xposition Yposition Zposition Zrotation Xrotation Yrotation
        End Site
        {
          OFFSET -0.000 0.078 -0.000
        }
      }
    }
  }
}
MOTION
Frames:	6
Frame Time:	0.0333333
-0.104281 30.3007 -249.55 0.160152 12.6894 -5.71431 7.92341 -7.41587 2.10681 5.93709 -15.2648 2.57622 7.45058e-07 -51.9963 4.76837e-05 -2.71785 20.183 -4.54815e-07 -9.68575e-06 -39.9761 4.76837e-05 12.6038 -16.185 10.6393 -7.83499 -7.51653 2.64502 1.52431 -10.0766 2.12865 2.98023e-06 -51.4963 0 3.9439 7.97747 -0.548198 2.98023e-06 -40.5529 4.76837e-05 -8.78407 -11.1715 -6.73443 0 5.77543 -5.77543 0.17289 -9.21802 0.103964 -1.49012e-06 34.7249 2.38419e-05 -28.3319 1.28066e-05 0.337835 19.7082 2.98023e-06 -4.76837e-05 -49.7866 27.9424 0.276297 24.4032 0 0 -2.92705e-06 -1.19528e-05 -38.3594 28.3235 -3.57628e-05 -3.57628e-05 -8.23579 0.0591379 0.0639005 0.0062 0.0497 0.0339 0 0 0 0 0.0215 0 0 0 0 0 0.022 0 0 0 0 0 0.017 0 0 0 0 -0.0068 0.0873 0.0207 0 0 0 0 0.0267 0 0 0 0 0 0.0213 0 0 0 0 0 0.018 0 0 0 0 -0.0067 0.0922 0.0055 0 0 0 0 0.0266 0 0 0 0 0 0.0228 0 0 0 0 0 0.015 0 0 0 0 -0.0067 0.0925 -0.0113 0 0 0 0 0.0247 0 0 0 0 0 0.0221 0 0 0 0 0 0.018 0 0 0 0 -0.0066 0.0935 -0.0272 0 0 0 0 0.0163 0 0 0 0 0 0.0171 0 0 0 0 0 0.018 0 0 0 0 -1.49012e-06 34.7249 2.38419e-05 27.9039 -5.38945e-06 -0.334574 -19.9012 -1.78814e-05 -4.76837e-05 49.4014 31.3631 -2.79007 -25.8611 1.78814e-05 2.38419e-05 1.01058e-05 5.12264e-06 38.4676 -25.6584 -5.96046e-06 -3.57628e-05 7.32856 -0.00193635 -3.58242 -0.0062 0.0497 0.0339 0 0 0 0 0.0215 0 0 0 0 0 0.022 0 0 0 0 0 0.017 0 0 0 0 0.0068 0.0873 0.0207 0 0 0 0 0.0267 0 0 0 0 0 0.0213 0 0 0 0 0 0.018 0 0 0 0 0.0067 0.0922 0.0055 0 0 0 0 0.0266 0 0 0 0 0 0.0228 0 0 0 0 0 0.015 0 0 0 0 0.0067 0.0925 -0.0113 0 0 0 0 0.0247 0 0 0 0 0 0.0221 0 0 0 0 0 0.018 0 0 0 0 0.0066 0.0935 -0.0272 0 0 0 0 0.0163 0 0 0 0 0 0.0171 0 0 0 0 0 0.018 0 0 0 0 -1.49012e-06 34.7249 2.38419e-05 -1.38191 7.19218 0.173042 0 20.3924 0 1.00318e-05 -9.39151e-06 4.26887e-07 
-0.373687 30.1036 -249.05 0.212007 13.727 -5.93324 7.94527 -7.34975 2.23813 6.48229 -21.2738 2.98944 -4.47035e-06 -51.1021 2.38419e-05 -2.67428 25.829 0 -7.45058e-07 -40.9797 4.76837e-05 13.0225 -15.207 10.8063 -7.85871 -7.52705 2.78604 1.79529 -11.0423 2.16953 2.98023e-06 -51.4296 0 3.93024 8.52688 -0.583647 -2.98023e-06 -40.4551 0 -8.52879 -11.5945 -6.59351 5.96046e-06 5.71564 -5.71568 0.193549 -10.5157 0.160361 -2.98023e-06 34.7248 2.38419e-05 -28.4427 1.10991e-05 0.643446 19.7537 -2.98023e-06 -4.76837e-05 -49.6853 25.8683 0.160308 24.4276 0 0 3.97875e-06 -8.53774e-06 -40.0271 26.535 -2.38419e-05 2.38419e-05 -7.74449 0.0944092 -1.78243 0.0062 0.0497 0.0339 0 0 0 0 0.0215 0 0 0 0 0 0.022 0 0 0 0 0 0.017 0 0 0 0 -0.0068 0.0873 0.0207 0 0 0 0 0.0267 0 0 0 0 0 0.0213 0 0 0 0 0 0.018 0 0 0 0 -0.0067 0.0922 0.0055 0 0 0 0 0.0266 0 0 0 0 0 0.0228 0 0 0 0 0 0.015 0 0 0 0 -0.0067 0.0925 -0.0113 0 0 0 0 0.0247 0 0 0 0 0 0.0221 0 0 0 0 0 0.018 0 0 0 0 -0.0066 0.0935 -0.0272 0 0 0 0 0.0163 0 0 0 0 0 0.0171 0 0 0 0 0 0.018 0 0 0 0 -2.98023e-06 34.7248 2.38419e-05 28.0905 -3.13495e-06 -0.636483 -19.9701 -1.19209e-05 -4.76837e-05 49.4782 31.5564 -2.56199 -25.787 -5.96046e-06 -2.38419e-05 1.80332e-05 -3.4151e-06 38.6407 -25.6941 2.38419e-05 2.38419e-05 7.14744 -0.00192269 -3.62457 -0.0062 0.0497 0.0339 0 0 0 0 0.0215 0 0 0 0 0 0.022 0 0 0 0 0 0.017 0 0 0 0 0.0068 0.0873 0.0207 0 0 0 0 0.0267 0 0 0 0 0 0.0213 0 0 0 0 0 0.018 0 0 0 0 0.0067 0.0922 0.0055 0 0 0 0 0.0266 0 0 0 0 0 0.0228 0 0 0 0 0 0.015 0 0 0 0 0.0067 0.0925 -0.0113 0 0 0 0 0.0247 0 0 0 0 0 0.0221 0 0 0 0 0 0.018 0 0 0 0 0.0066 0.0935 -0.0272 0 0 0 0 0.0163 0 0 0 0 0 0.0171 0 0 0 0 0 0.018 0 0 0 0 -2.98023e-06 34.7248 2.38419e-05 -1.19194 7.88007 0.163439 -5.96046e-06 20.2694 -4.76837e-05 1.02453e-05 -1.10991e-05 1.28066e-06 
-0.373687 30.1036 -249.05 0.212007 13.727 -5.93324 7.94527 -7.34975 2.23813 6.48229 -21.2738 2.98944 -4.47035e-06 -51.1021 2.38419e-05 -2.67428 25.829 0 -7.45058e-07 -40.9797 4.76837e-05 13.0225 -15.207 10.8063 -7.85871 -7.52705 2.78604 1.79529 -11.0423 2.16953 2.98023e-06 -51.4296 0 3.93024 8.52688 -0.583647 -2.98023e-06 -40.4551 0 -8.52879 -11.5945 -6.59351 5.96046e-06 5.71564 -5.71568 0.193549 -10.5157 0.160361 -2.98023e-06 34.7248 2.38419e-05 -28.4427 1.10991e-05 0.643446 19.7537 -2.98023e-06 -4.76837e-05 -49.6853 25.8683 0.160308 24.4276 0 0 3.97875e-06 -8.53774e-06 -40.0271 26.535 -2.38419e-05 2.38419e-05 -7.74449 0.0944092 -1.78243 0.0062 0.0497 0.0339 0 0 0 0 0.0215 0 0 0 0 0 0.022 0 0 0 0 0 0.017 0 0 0 0 -0.0068 0.0873 0.0207 0 0 0 0 0.0267 0 0 0 0 0 0.0213 0 0 0 0 0 0.018 0 0 0 0 -0.0067 0.0922 0.0055 0 0 0 0 0.0266 0 0 0 0 0 0.0228 0 0 0 0 0 0.015 0 0 0 0 -0.0067 0.0925 -0.0113 0 0 0 0 0.0247 0 0 0 0 0 0.0221 0 0 0 0 0 0.018 0 0 0 0 -0.0066 0.0935 -0.0272 0 0 0 0 0.0163 0 0 0 0 0 0.0171 0 0 0 0 0 0.018 0 0 0 0 -2.98023e-06 34.7248 2.38419e-05 28.0905 -3.13495e-06 -0.636483 -19.9701 -1.19209e-05 -4.76837e-05 49.4782 31.5564 -2.56199 -25.787 -5.96046e-06 -2.38419e-05 1.80332e-05 -3.4151e-06 38.6407 -25.6941 2.38419e-05 2.38419e-05 7.14744 -0.00192269 -3.62457 -0.0062 0.0497 0.0339 0 0 0 0 0.0215 0 0 0 0 0 0.022 0 0 0 0 0 0.017 0 0 0 0 0.0068 0.0873 0.0207 0 0 0 0 0.0267 0 0 0 0 0 0.0213 0 0 0 0 0 0.018 0 0 0 0 0.0067 0.0922 0.0055 0 0 0 0 0.0266 0 0 0 0 0 0.0228 0 0 0 0 0 0.015 0 0 0 0 0.0067 0.0925 -0.0113 0 0 0 0 0.0247 0 0 0 0 0 0.0221 0 0 0 0 0 0.018 0 0 0 0 0.0066 0.0935 -0.0272 0 0 0 0 0.0163 0 0 0 0 0 0.0171 0 0 0 0 0 0.018 0 0 0 0 -2.98023e-06 34.7248 2.38419e-05 -1.19194 7.88007 0.163439 -5.96046e-06 20.2694 -4.76837e-05 1.02453e-05 -1.10991e-05 1.28066e-06 
-0.463215 30.0498 -248.792 0.256281 14.0328 -6.11622 7.95375 -7.32689 2.27511 6.68819 -23.1746 3.17793 3.72529e-06 -50.9731 -2.38419e-05 -2.51991 25.8419 -4.74318e-07 -3.72529e-06 -40.9717 2.38419e-05 12.676 -14.8482 10.4651 -7.8679 -7.53196 2.83587 1.88001 -11.2567 2.2129 0 -51.448 4.76837e-05 3.93333 8.65492 -0.59281 2.98023e-06 -40.4343 -2.38419e-05 -8.44631 -11.8544 -6.56181 -2.98023e-06 5.69285 -5.69284 0.187803 -10.938 0.193859 -2.98023e-06 34.7249 0 -28.401 1.28066e-05 0.777711 19.7595 -2.98023e-06 -2.38419e-05 -49.5873 25.2558 0.0190232 24.4005 1.19209e-05 -4.76837e-05 5.95885e-06 1.70755e-06 -40.5785 25.7923 -2.38419e-05 3.57628e-05 -7.69391 0.0910532 -2.1965 0.0062 0.0497 0.0339 0 0 0 0 0.0215 0 0 0 0 0 0.022 0 0 0 0 0 0.017 0 0 0 0 -0.0068 0.0873 0.0207 0 0 0 0 0.0267 0 0 0 0 0 0.0213 0 0 0 0 0 0.018 0 0 0 0 -0.0067 0.0922 0.0055 0 0 0 0 0.0266 0 0 0 0 0 0.0228 0 0 0 0 0 0.015 0 0 0 0 -0.0067 0.0925 -0.0113 0 0 0 0 0.0247 0 0 0 0 0 0.0221 0 0 0 0 0 0.018 0 0 0 0 -0.0066 0.0935 -0.0272 0 0 0 0 0.0163 0 0 0 0 0 0.0171 0 0 0 0 0 0.018 0 0 0 0 -2.98023e-06 34.7249 0 28.1358 -1.06055e-06 -0.768577 -19.9945 -5.96046e-06 -7.15256e-05 49.3986 31.9685 -2.08026 -25.7442 0 0 6.83394e-06 5.12264e-06 38.3743 -25.647 0 -1.19209e-05 7.08748 -0.00168875 -3.62113 -0.0062 0.0497 0.0339 0 0 0 0 0.0215 0 0 0 0 0 0.022 0 0 0 0 0 0.017 0 0 0 0 0.0068 0.0873 0.0207 0 0 0 0 0.0267 0 0 0 0 0 0.0213 0 0 0 0 0 0.018 0 0 0 0 0.0067 0.0922 0.0055 0 0 0 0 0.0266 0 0 0 0 0 0.0228 0 0 0 0 0 0.015 0 0 0 0 0.0067 0.0925 -0.0113 0 0 0 0 0.0247 0 0 0 0 0 0.0221 0 0 0 0 0 0.018 0 0 0 0 0.0066 0.0935 -0.0272 0 0 0 0 0.0163 0 0 0 0 0 0.0171 0 0 0 0 0 0.018 0 0 0 0 -2.98023e-06 34.7249 0 -1.11026 8.10635 0.156578 -5.96046e-06 20.219 -4.76837e-05 9.39151e-06 -1.10991e-05 4.26887e-07 
-0.495553 30.0237 -248.608 0.26584 14.1594 -6.18196 7.95388 -7.31351 2.28844 6.78556 -24.0797 3.2994 4.47035e-06 -50.9982 -2.38419e-05 -2.45263 25.7617 2.36999e-06 5.96046e-06 -40.8769 -7.15256e-05 12.4127 -15.0471 10.2928 -7.86801 -7.52974 2.86069 1.90984 -11.2814 2.25191 0 -51.4715 4.76837e-05 3.94844 8.68215 -0.596952 -5.96046e-06 -40.412 -2.38419e-05 -8.41076 -11.9846 -6.55005 -2.98023e-06 5.68266 -5.68261 0.187148 -11.1452 0.209675 0 34.7248 2.38419e-05 -28.3373 1.19528e-05 0.79618 19.7553 0 -4.76837e-05 -49.5805 24.2227 -0.0156923 24.395 0 -2.38419e-05 -3.03888e-06 1.70755e-06 -40.888 25.2669 1.19209e-05 2.38419e-05 -7.76071 0.085854 -2.31838 0.0062 0.0497 0.0339 0 0 0 0 0.0215 0 0 0 0 0 0.022 0 0 0 0 0 0.017 0 0 0 0 -0.0068 0.0873 0.0207 0 0 0 0 0.0267 0 0 0 0 0 0.0213 0 0 0 0 0 0.018 0 0 0 0 -0.0067 0.0922 0.0055 0 0 0 0 0.0266 0 0 0 0 0 0.0228 0 0 0 0 0 0.015 0 0 0 0 -0.0067 0.0925 -0.0113 0 0 0 0 0.0247 0 0 0 0 0 0.0221 0 0 0 0 0 0.018 0 0 0 0 -0.0066 0.0935 -0.0272 0 0 0 0 0.0163 0 0 0 0 0 0.0171 0 0 0 0 0 0.018 0 0 0 0 0 34.7248 2.38419e-05 28.1417 -3.09826e-06 -0.787296 -19.9784 1.19209e-05 -2.38419e-05 49.3989 32.1262 -1.96603 -25.7505 -5.96046e-06 -2.38419e-05 1.33409e-05 -1.70755e-06 38.4182 -25.6551 -1.19209e-05 2.38419e-05 7.05074 -0.00158459 -3.6175 -0.0062 0.0497 0.0339 0 0 0 0 0.0215 0 0 0 0 0 0.022 0 0 0 0 0 0.017 0 0 0 0 0.0068 0.0873 0.0207 0 0 0 0 0.0267 0 0 0 0 0 0.0213 0 0 0 0 0 0.018 0 0 0 0 0.0067 0.0922 0.0055 0 0 0 0 0.0266 0 0 0 0 0 0.0228 0 0 0 0 0 0.015 0 0 0 0 0.0067 0.0925 -0.0113 0 0 0 0 0.0247 0 0 0 0 0 0.0221 0 0 0 0 0 0.018 0 0 0 0 0.0066 0.0935 -0.0272 0 0 0 0 0.0163 0 0 0 0 0 0.0171 0 0 0 0 0 0.018 0 0 0 0 0 34.7248 2.38419e-05 -1.05477 8.23813 0.151153 -5.96046e-06 20.1924 0 9.28479e-06 -1.19528e-05 0 
-0.537068 29.9476 -247.982 0.306733 14.2359 -6.42805 7.94747 -7.28702 2.27776 7.00146 -25.9827 3.82159 7.45058e-07 -51.0892 2.38419e-05 -2.15722 23.7412 -1.86541e-06 1.49012e-06 -40.2986 -2.38419e-05 10.9936 -15.1448 9.1798 -7.86404 -7.50427 2.93374 1.92396 -10.9343 2.54798 0 -51.5232 -2.38419e-05 3.98595 8.62679 -0.598827 -2.98023e-06 -40.322 0 -8.35076 -12.2932 -6.53982 0 5.66782 -5.66776 0.176686 -11.5298 0.253848 2.98023e-06 34.7248 0 -28.0704 1.10991e-05 0.61215 19.7272 -1.19209e-05 2.38419e-05 -49.5643 23.4448 0.0275006 24.3432 -1.19209e-05 2.38419e-05 -1.00128e-05 -3.4151e-06 -42.2055 24.5924 -2.38419e-05 -4.76837e-05 -8.15424 0.0676167 -2.31599 0.0062 0.0497 0.0339 0 0 0 0 0.0215 0 0 0 0 0 0.022 0 0 0 0 0 0.017 0 0 0 0 -0.0068 0.0873 0.0207 0 0 0 0 0.0267 0 0 0 0 0 0.0213 0 0 0 0 0 0.018 0 0 0 0 -0.0067 0.0922 0.0055 0 0 0 0 0.0266 0 0 0 0 0 0.0228 0 0 0 0 0 0.015 0 0 0 0 -0.0067 0.0925 -0.0113 0 0 0 0 0.0247 0 0 0 0 0 0.0221 0 0 0 0 0 0.018 0 0 0 0 -0.0066 0.0935 -0.0272 0 0 0 0 0.0163 0 0 0 0 0 0.0171 0 0 0 0 0 0.018 0 0 0 0 2.98023e-06 34.7248 0 28.1342 -4.08211e-06 -0.607161 -19.8897 0 -7.15256e-05 49.4138 32.7465 -1.74374 -25.808 3.57628e-05 9.53674e-05 7.55913e-06 -6.83019e-06 38.2513 -25.5579 0 -4.76837e-05 6.89237 -0.00117991 -3.56968 -0.0062 0.0497 0.0339 0 0 0 0 0.0215 0 0 0 0 0 0.022 0 0 0 0 0 0.017 0 0 0 0 0.0068 0.0873 0.0207 0 0 0 0 0.0267 0 0 0 0 0 0.0213 0 0 0 0 0 0.018 0 0 0 0 0.0067 0.0922 0.0055 0 0 0 0 0.0266 0 0 0 0 0 0.0228 0 0 0 0 0 0.015 0 0 0 0 0.0067 0.0925 -0.0113 0 0 0 0 0.0247 0 0 0 0 0 0.0221 0 0 0 0 0 0.018 0 0 0 0 0.0066 0.0935 -0.0272 0 0 0 0 0.0163 0 0 0 0 0 0.0171 0 0 0 0 0 0.018 0 0 0 0 2.98023e-06 34.7248 0 -0.826467 8.72084 0.125317 0 20.1439 -4.76837e-05 1.04587e-05 -7.68396e-06 8.53773e-07 
